<?xml version="1.0" standalone="no"?>
<!DOCTYPE svg PUBLIC "-//W3C//DTD SVG 20010904//EN"
 "http://www.w3.org/TR/2001/REC-SVG-20010904/DTD/svg10.dtd">
<svg version="1.0" xmlns="http://www.w3.org/2000/svg"
 width="1292.000000pt" height="1292.000000pt" viewBox="0 0 1292.000000 1292.000000"
 preserveAspectRatio="xMidYMid meet">
<metadata>
Created by potrace 1.14, written by Peter Selinger 2001-2017
</metadata>
<g transform="translate(0.000000,1292.000000) scale(0.100000,-0.100000)"
fill="#000000" stroke="none">
<path d="M4769 11276 c-2 -2 -47 -6 -99 -10 -123 -9 -145 -11 -290 -32 -31 -5
-130 -24 -200 -38 -65 -14 -126 -29 -135 -34 -5 -3 -16 -7 -25 -7 -8 -1 -42
-10 -75 -20 -55 -16 -73 -21 -93 -26 -4 -1 -45 -17 -92 -36 -47 -18 -91 -33
-97 -33 -7 0 -13 -4 -13 -10 0 -5 -6 -10 -14 -10 -7 0 -40 -12 -72 -27 -33
-15 -61 -27 -64 -28 -6 -1 -39 -18 -150 -78 -125 -67 -338 -207 -409 -268 -7
-6 -43 -37 -80 -67 -77 -65 -258 -245 -318 -317 -23 -27 -54 -63 -68 -80 -14
-16 -33 -42 -43 -57 -9 -16 -20 -28 -24 -28 -4 0 -8 -7 -8 -15 0 -8 -4 -15 -9
-15 -5 0 -14 -13 -21 -30 -7 -16 -16 -27 -21 -24 -5 3 -9 1 -9 -5 0 -6 -17
-37 -37 -68 -21 -32 -43 -67 -49 -78 -6 -11 -25 -45 -43 -75 -17 -30 -39 -72
-47 -92 -9 -21 -20 -38 -25 -38 -5 0 -8 -3 -7 -7 1 -5 -9 -30 -21 -58 -36 -76
-62 -135 -83 -190 -21 -54 -98 -281 -103 -305 -2 -8 -8 -30 -14 -48 -5 -18
-10 -33 -9 -35 0 -1 -5 -20 -11 -42 -5 -22 -13 -56 -16 -75 -3 -19 -11 -53
-17 -75 -6 -22 -12 -53 -13 -70 -1 -16 -7 -55 -13 -85 -11 -53 -14 -73 -27
-185 -11 -97 -15 -152 -21 -292 l-6 -143 63 24 c35 13 76 29 92 35 15 6 27 8
27 5 0 -4 7 -1 15 6 8 7 15 9 15 5 0 -4 6 -3 12 3 7 5 27 12 43 15 57 9 85 19
86 31 0 6 2 27 4 46 2 19 6 69 9 110 8 87 13 137 19 165 3 11 8 40 11 65 3 25
8 56 11 70 3 14 7 39 10 55 8 57 64 270 95 365 45 136 75 210 136 337 30 62
54 117 54 123 0 5 4 10 8 10 5 0 19 23 32 50 13 28 27 50 32 50 4 0 8 5 8 10
0 12 47 86 73 114 9 11 17 23 17 28 0 4 6 16 14 25 130 161 148 182 227 262
70 71 138 132 204 184 33 26 65 51 71 56 5 4 30 21 54 37 25 16 53 36 63 44
10 8 20 13 24 12 3 -2 9 0 12 5 20 29 339 187 402 200 16 3 29 9 29 14 0 5 3
8 8 7 4 -1 23 3 42 9 105 34 182 55 245 69 39 9 79 18 90 20 11 3 34 7 50 9
17 2 48 7 70 11 22 4 59 8 82 8 24 1 43 3 43 6 0 3 35 7 78 9 163 9 552 2 552
-9 0 -3 17 -6 38 -7 20 -1 53 -4 72 -6 19 -3 60 -8 90 -11 30 -4 63 -9 72 -12
9 -3 27 -7 40 -9 13 -3 34 -7 48 -10 14 -3 36 -7 49 -10 48 -9 207 -47 231
-55 14 -5 72 -23 130 -40 145 -44 401 -137 435 -158 6 -4 12 -7 15 -7 17 -2
438 -207 480 -235 8 -5 78 -46 155 -91 77 -45 142 -85 145 -89 3 -3 30 -21 60
-39 30 -19 57 -36 60 -40 3 -3 12 -10 21 -16 20 -12 140 -96 154 -107 6 -4 37
-28 70 -53 92 -69 109 -82 139 -110 15 -14 30 -25 34 -25 4 0 26 -18 50 -40
23 -22 44 -40 47 -40 2 0 15 -10 28 -22 13 -13 59 -54 103 -93 112 -99 415
-402 514 -515 46 -52 86 -97 90 -100 5 -5 81 -97 110 -134 8 -10 29 -35 46
-55 17 -20 79 -101 138 -181 59 -80 114 -153 122 -163 8 -9 14 -21 14 -26 0
-5 7 -15 16 -22 9 -7 20 -22 25 -34 5 -11 27 -45 49 -75 22 -30 40 -59 40 -63
0 -5 6 -15 13 -22 23 -26 34 -41 38 -50 8 -21 120 -205 124 -205 2 0 32 20 67
44 88 61 190 122 219 131 13 4 26 11 29 15 7 10 164 75 252 104 92 30 214 60
246 60 12 0 22 2 22 5 0 6 32 10 105 14 22 1 43 6 47 11 8 12 -205 327 -309
456 -6 8 -68 86 -137 172 -69 86 -133 165 -143 176 -10 10 -35 38 -57 63 -216
248 -496 526 -751 744 -38 33 -72 62 -75 66 -4 4 -60 49 -170 136 -8 7 -33 26
-55 42 -22 17 -44 34 -50 39 -5 4 -28 21 -50 37 -22 17 -44 34 -50 38 -11 9
-169 120 -199 140 -10 6 -36 24 -57 40 -21 15 -43 27 -49 27 -5 0 -10 5 -10
10 0 6 -4 10 -9 10 -5 0 -36 18 -68 39 -68 45 -190 118 -283 169 -36 19 -78
43 -95 53 -74 43 -209 109 -221 109 -8 0 -14 4 -14 9 0 5 -15 14 -32 22 -18 7
-74 32 -125 56 -127 59 -349 149 -468 190 -55 19 -109 38 -120 44 -11 5 -29
10 -40 12 -11 1 -24 5 -30 8 -9 6 -57 19 -70 20 -2 0 -20 6 -40 15 -19 8 -35
12 -35 10 0 -3 -19 2 -42 10 -43 15 -221 62 -268 71 -14 2 -44 8 -68 14 -23 5
-59 12 -78 15 -20 3 -46 8 -58 11 -11 2 -32 6 -46 7 -14 2 -38 6 -55 10 -31 6
-99 16 -150 21 -16 2 -57 6 -90 10 -33 4 -80 9 -105 12 -54 5 -556 14 -561 9z"/>
<path d="M3606 7338 c3 -4 -2 -8 -11 -8 -10 0 -31 -6 -48 -14 -18 -8 -57 -25
-87 -38 l-56 -23 1 -950 0 -950 95 -2 c138 -4 138 -4 136 59 -2 29 2 59 7 66
5 6 6 12 1 12 -8 0 -11 136 -4 165 1 6 1 15 0 20 -7 32 -5 112 3 123 5 6 6 12
1 12 -8 0 -11 136 -4 165 1 6 1 15 0 20 -7 32 -5 112 3 123 5 6 6 12 1 12 -8
0 -11 136 -4 165 1 6 1 15 0 20 -7 32 -5 112 3 123 5 6 6 12 1 12 -8 0 -11
294 -4 325 1 6 1 15 0 20 -7 32 -5 112 3 123 5 6 6 12 1 12 -5 0 -9 94 -8 208
1 192 0 208 -17 208 -10 0 -15 -4 -13 -8z"/>
<path d="M8733 7340 c-24 -4 -52 -6 -63 -5 -11 1 -20 -1 -20 -5 0 -3 -8 -6
-17 -7 -10 -1 -25 -3 -33 -6 -8 -2 -30 -8 -47 -12 -18 -4 -33 -11 -33 -16 0
-5 -9 -9 -20 -9 -11 0 -20 -4 -20 -10 0 -5 -6 -10 -14 -10 -8 0 -28 -12 -45
-26 -17 -14 -31 -23 -31 -21 0 6 -87 -80 -113 -112 -26 -32 -85 -151 -93 -186
-20 -94 -12 -251 17 -321 13 -30 16 -39 18 -52 4 -25 104 -129 157 -163 39
-26 205 -93 255 -103 35 -7 59 -14 97 -25 17 -5 32 -7 32 -4 0 3 6 1 13 -5 7
-6 24 -12 37 -14 14 -2 30 -6 35 -9 6 -3 36 -14 69 -25 97 -32 172 -121 182
-219 11 -103 -3 -176 -50 -249 -59 -93 -152 -154 -261 -173 -37 -7 -150 -9
-160 -4 -5 3 -16 6 -25 8 -47 7 -81 19 -129 45 -45 25 -123 79 -141 99 -3 3
-21 17 -41 32 -35 26 -35 26 -52 7 -9 -11 -17 -22 -17 -25 0 -3 -8 -13 -17
-23 -10 -10 -25 -29 -33 -41 -8 -13 -23 -32 -32 -43 -32 -38 -25 -47 117 -144
97 -67 218 -114 329 -130 59 -8 222 -5 248 5 14 5 28 8 31 5 8 -8 198 67 217
86 3 3 21 17 40 31 72 54 143 132 156 172 4 9 10 17 14 17 11 0 62 137 67 180
16 137 6 249 -30 333 -9 20 -15 38 -15 40 2 3 -28 39 -62 76 -36 38 -97 81
-104 74 -3 -4 -6 -1 -6 5 0 7 -9 12 -20 12 -11 0 -20 5 -20 10 0 6 -5 10 -12
10 -6 0 -48 13 -92 30 -45 16 -93 31 -108 34 -15 2 -31 7 -36 10 -8 5 -150 44
-186 52 -37 7 -128 58 -158 89 -36 37 -72 85 -62 85 3 0 1 7 -6 15 -32 39 -4
226 42 275 10 11 18 23 19 27 1 17 99 82 156 103 49 18 75 21 149 17 49 -2 98
-6 109 -9 11 -3 40 -11 63 -18 49 -13 174 -70 183 -83 6 -8 49 73 49 91 0 5 6
22 14 38 32 67 32 68 -41 101 -81 37 -179 68 -248 79 -5 1 -12 3 -15 4 -3 1
-23 3 -45 5 -22 2 -53 5 -70 7 -16 2 -49 1 -72 -2z"/>
<path d="M11624 7332 c-38 -7 -76 -20 -85 -28 -8 -8 -20 -14 -25 -14 -14 0
-84 -73 -84 -88 0 -7 -4 -12 -9 -12 -8 0 -27 -45 -37 -85 -2 -5 -6 -21 -9 -35
-3 -14 -7 -97 -9 -185 l-3 -159 -61 -1 c-34 0 -63 -3 -66 -5 -2 -3 -7 -25 -11
-50 -4 -24 -9 -48 -12 -53 -3 -4 -6 -18 -8 -30 -2 -12 -6 -31 -8 -43 -4 -17
-1 -21 16 -20 12 1 28 -2 35 -7 7 -6 12 -6 12 0 0 11 36 11 46 0 4 -4 13 -2
21 4 10 9 13 8 13 0 0 -7 5 -9 10 -6 6 3 11 0 11 -7 5 -55 3 -95 -4 -105 -6
-8 -6 -13 0 -13 11 0 10 -101 -1 -118 -3 -6 -3 -13 2 -16 10 -6 9 -157 -1
-173 -4 -6 -4 -14 1 -17 9 -6 8 -47 -2 -64 -4 -7 -4 -12 1 -12 10 0 10 -171 0
-187 -5 -7 -4 -13 0 -13 5 0 9 -36 8 -80 0 -48 -4 -80 -10 -80 -7 0 -7 -3 0
-8 12 -8 14 -142 2 -142 -5 0 -5 -6 0 -12 4 -7 8 -33 9 -58 1 -25 2 -48 3 -52
0 -3 52 -6 114 -5 l112 2 2 40 c3 50 4 92 3 177 -1 37 1 72 5 78 3 5 3 10 -2
10 -4 0 -8 29 -8 65 0 36 4 65 8 65 5 0 5 5 2 11 -4 5 -6 36 -6 67 2 68 2 106
0 189 0 34 2 67 6 73 3 5 3 10 -2 10 -4 0 -8 29 -8 65 0 36 4 65 8 65 5 0 5 5
2 10 -6 10 -7 56 -4 161 1 26 -1 51 -5 57 -4 6 3 16 14 22 14 8 20 8 20 0 0
-7 6 -8 17 -1 9 5 26 6 37 1 12 -4 30 -4 41 0 11 4 28 3 38 -2 11 -6 17 -5 17
2 0 6 5 8 10 5 15 -9 47 3 47 18 1 14 10 59 19 97 3 14 8 39 11 55 l5 30 -134
0 -133 0 -2 25 c-10 103 1 266 20 311 21 50 50 71 105 77 36 3 62 -1 95 -16
44 -19 48 -20 56 -4 9 17 51 166 51 180 0 11 -133 42 -192 46 -25 1 -76 -4
-114 -12z"/>
<path d="M19 7288 c0 -13 -1 -453 -1 -978 l0 -955 128 0 129 0 1 180 c1 99 2
185 4 190 1 6 1 12 0 15 -7 15 -4 120 3 120 4 0 5 5 1 11 -10 17 -12 71 -3 90
5 9 5 19 2 23 -10 10 -10 116 0 116 4 0 4 8 -1 18 -6 13 -8 95 -3 122 1 3 202
5 449 5 l447 0 2 -435 c1 -239 2 -440 2 -446 1 -8 39 -11 129 -10 l127 1 1
130 c1 72 3 132 4 135 1 3 1 10 0 15 -7 25 -4 617 3 622 4 2 4 10 0 16 -10 16
-11 458 -1 478 4 9 4 19 0 23 -10 10 -10 309 0 323 5 6 5 13 1 16 -4 3 -8 48
-7 101 l0 96 -127 0 c-93 0 -128 -3 -131 -12 -2 -7 -3 -194 -2 -416 0 -222 -3
-405 -7 -408 -7 -4 -349 -6 -819 -4 l-75 0 1 103 c1 56 2 107 4 112 1 6 1 12
0 15 -7 15 -4 120 3 120 4 0 5 5 1 11 -10 17 -12 71 -3 90 5 9 5 19 2 23 -10
10 -10 116 0 116 4 0 5 5 1 12 -4 7 -8 62 -8 122 l-1 111 -127 3 c-127 3 -128
2 -129 -20z"/>
<path d="M4105 7196 c-54 -15 -82 -36 -105 -80 -19 -39 -20 -99 0 -136 31 -58
131 -93 190 -66 43 19 90 85 85 118 -2 10 1 20 6 23 9 6 -6 47 -34 88 -16 23
-50 46 -77 51 -3 1 -9 4 -15 7 -5 3 -28 1 -50 -5z"/>
<path d="M12375 7151 c-22 -10 -69 -30 -105 -46 l-65 -27 1 -162 c0 -88 -2
-167 -4 -174 -3 -8 -18 -13 -36 -12 -17 1 -49 2 -72 1 l-41 -1 0 -100 -1 -100
31 -1 c18 0 52 -1 77 -1 l45 0 0 -407 c-1 -223 1 -410 4 -416 3 -5 6 -17 8
-25 19 -131 101 -250 213 -307 53 -27 59 -28 200 -26 80 0 172 7 205 15 60 13
60 13 59 48 0 19 -3 51 -6 70 -23 136 -19 130 -67 105 -16 -8 -31 -11 -35 -8
-3 4 -6 2 -6 -3 0 -11 -17 -14 -92 -15 -81 -2 -135 14 -168 50 -21 22 -52 71
-45 71 3 0 1 9 -5 19 -5 11 -13 37 -16 58 -7 39 -12 738 -6 760 3 9 46 12 155
12 84 0 163 0 177 0 26 1 26 1 26 101 1 85 -1 100 -15 101 -9 0 -89 0 -177 0
-159 0 -162 0 -165 22 -2 12 -4 111 -4 220 1 220 4 212 -70 178z"/>
<path d="M2468 6765 c-3 -3 -31 -7 -64 -10 -69 -6 -83 -9 -146 -28 -26 -8 -49
-12 -52 -9 -4 3 -6 0 -6 -6 0 -7 -7 -12 -16 -12 -17 0 -97 -41 -102 -52 -2 -5
-10 -8 -17 -8 -7 0 -16 -7 -19 -16 -4 -9 -9 -14 -12 -11 -9 8 -161 -147 -169
-172 -3 -12 -11 -21 -16 -21 -5 0 -9 -6 -9 -14 0 -8 -6 -21 -12 -28 -15 -16
-33 -60 -60 -148 -20 -68 -29 -243 -16 -325 14 -86 72 -226 121 -289 35 -46
129 -140 170 -169 81 -61 216 -114 312 -125 98 -11 239 -5 300 13 33 9 72 19
87 22 15 3 33 11 39 19 6 8 18 14 26 14 23 0 101 58 161 119 83 86 92 96 92
108 0 6 7 13 15 17 8 3 15 9 15 14 0 10 -104 82 -118 82 -5 0 -17 9 -27 20
-18 20 -19 20 -52 -17 -49 -57 -77 -85 -109 -113 -33 -28 -99 -77 -99 -72 0 2
-7 1 -15 -2 -151 -51 -266 -47 -390 13 -50 24 -220 174 -209 185 2 2 33 20 69
39 160 84 236 122 243 119 4 -1 7 2 7 6 0 5 16 14 35 22 19 8 35 17 35 20 0 4
6 7 13 7 6 0 48 21 92 45 44 25 99 53 123 63 23 10 42 23 42 29 0 5 3 7 6 3 3
-3 21 3 40 14 19 10 80 42 137 71 56 28 105 56 109 62 4 6 8 8 8 4 0 -9 92 41
101 55 4 5 -14 46 -40 90 -54 95 -171 217 -253 265 -69 41 -183 82 -246 88
-81 9 -100 12 -110 18 -5 3 -11 3 -14 1z m102 -208 c8 -2 29 -7 45 -12 52 -13
131 -63 181 -115 27 -28 49 -55 49 -61 0 -10 -69 -47 -501 -264 -121 -60 -221
-112 -224 -115 -3 -3 -31 -18 -63 -34 -48 -24 -60 -27 -67 -16 -5 8 -6 18 -4
22 3 4 2 14 -3 21 -17 27 -11 173 11 242 2 6 4 13 5 17 2 14 52 99 69 120 55
64 127 125 187 155 22 12 42 21 45 21 3 1 12 3 20 6 55 20 194 27 250 13z"/>
<path d="M5297 6764 c-3 -3 -41 -8 -84 -10 -98 -5 -125 -9 -151 -23 -12 -6
-25 -11 -29 -10 -14 3 -113 -43 -113 -53 0 -5 -4 -7 -8 -4 -5 3 -29 -9 -53
-26 -43 -31 -132 -108 -125 -108 2 0 -13 -17 -33 -39 -34 -36 -113 -161 -117
-185 -1 -7 -24 -71 -25 -71 0 0 -6 -29 -14 -64 -24 -117 -11 -289 30 -387 9
-21 16 -40 15 -42 -1 -6 34 -68 42 -73 5 -3 8 -9 6 -11 -7 -12 158 -198 176
-198 4 0 16 -9 28 -19 21 -20 166 -94 205 -106 96 -27 252 -38 333 -22 14 3
43 8 65 12 59 12 205 74 205 88 0 4 7 7 15 7 8 0 15 4 15 9 0 5 8 12 18 15 30
10 172 155 172 176 0 6 4 10 9 10 13 0 81 142 97 203 49 180 29 390 -49 527
-11 19 -25 44 -31 55 -22 42 -151 177 -203 213 -90 63 -224 115 -326 126 -27
3 -52 8 -56 11 -5 2 -11 2 -14 -1z m98 -227 c11 -3 21 -6 23 -6 1 -1 4 -1 8 0
3 0 16 -7 30 -15 13 -9 24 -14 24 -11 0 10 93 -57 125 -89 93 -95 140 -197
150 -326 2 -25 4 -47 6 -50 1 -3 0 -9 -1 -15 -1 -5 -4 -31 -5 -57 -2 -26 -7
-57 -11 -70 -4 -13 -9 -30 -10 -38 -6 -31 -36 -100 -45 -100 -5 0 -8 -4 -6 -8
4 -14 -64 -96 -114 -136 -90 -72 -185 -104 -310 -104 -45 0 -99 6 -120 13 -20
7 -40 11 -43 8 -3 -4 -6 -1 -6 5 0 7 -3 11 -7 10 -13 -4 -73 24 -73 33 0 5 -6
9 -13 9 -11 0 -92 73 -125 114 -12 15 -65 114 -67 126 -1 3 -7 24 -13 47 -7
23 -12 45 -11 50 1 4 0 10 -1 13 -1 3 -4 37 -5 75 -5 113 23 219 79 308 17 26
34 47 38 47 5 0 8 6 8 13 2 26 160 137 202 140 10 1 18 5 18 9 0 4 9 5 20 3
11 -2 22 0 25 5 5 8 196 6 230 -3z"/>
<path d="M6610 6763 c-106 -16 -216 -68 -285 -136 -43 -43 -93 -120 -98 -154
-1 -10 -5 -22 -8 -28 -12 -21 -1 -161 15 -195 42 -87 90 -141 157 -175 19 -10
42 -24 52 -33 9 -8 17 -12 17 -7 0 4 11 0 24 -8 13 -9 35 -18 48 -21 12 -2 37
-9 53 -16 17 -6 38 -13 49 -16 10 -2 44 -11 75 -20 31 -9 65 -18 75 -20 11 -2
23 -9 26 -15 4 -6 10 -10 14 -10 19 3 28 -2 64 -37 77 -74 77 -180 1 -266 -62
-71 -168 -106 -303 -100 -106 5 -266 63 -266 97 0 6 -3 7 -7 4 -3 -4 -21 4
-38 18 l-33 24 -17 -57 c-10 -31 -26 -80 -36 -109 l-17 -51 51 -25 c156 -75
247 -96 415 -92 70 2 138 5 152 9 101 23 121 29 126 37 3 5 10 7 15 4 5 -4 9
-3 9 2 0 4 15 14 33 22 17 8 34 17 37 20 3 4 21 19 40 35 43 36 110 124 110
146 0 9 3 20 8 24 4 4 8 12 8 17 1 5 2 10 4 12 9 12 20 194 11 203 -3 2 -6 11
-7 18 -4 29 -43 102 -65 124 -40 38 -71 61 -90 67 -11 4 -19 11 -19 17 0 6 -3
9 -6 5 -4 -3 -24 3 -45 14 -22 11 -39 17 -39 13 0 -4 -6 -2 -12 4 -12 9 -220
77 -226 73 -1 -1 -15 5 -31 13 -16 9 -31 12 -35 9 -3 -4 -6 0 -6 7 0 7 -3 11
-6 7 -7 -7 -76 35 -105 64 -60 60 -53 177 15 236 57 50 116 68 211 63 98 -4
105 -5 105 -12 0 -4 6 -5 14 -2 8 3 17 1 21 -5 3 -6 15 -11 26 -11 11 0 36 -9
57 -19 20 -10 39 -18 42 -17 3 0 19 -9 36 -21 29 -21 46 -20 51 2 1 6 15 44
31 87 l29 76 -26 13 c-14 7 -28 13 -31 14 -3 1 -23 9 -44 18 -44 19 -122 43
-176 52 -42 8 -215 14 -250 8z"/>
<path d="M10337 6763 c-4 -3 -41 -6 -84 -7 -43 -1 -84 -5 -90 -9 -7 -5 -13 -6
-13 -3 0 3 -26 -4 -57 -15 -32 -11 -62 -22 -68 -23 -19 -4 -108 -55 -155 -89
-43 -31 -138 -128 -167 -171 -15 -22 -31 -43 -34 -46 -12 -10 -57 -117 -75
-175 -34 -114 -27 -320 14 -425 5 -14 9 -27 9 -30 -1 -3 18 -40 42 -84 45 -83
204 -256 235 -256 9 0 16 -4 16 -9 0 -5 16 -15 35 -22 19 -7 35 -17 35 -21 0
-4 9 -8 20 -8 11 0 20 -4 20 -10 0 -5 3 -9 8 -8 4 1 32 -6 63 -16 66 -20 112
-27 197 -30 81 -3 202 14 262 38 38 15 60 23 73 24 4 1 15 8 23 17 9 8 21 15
29 15 7 0 15 3 17 8 2 4 23 20 47 37 49 33 191 183 191 202 0 6 3 13 8 15 10
4 42 67 42 84 0 8 4 14 8 14 9 0 42 118 49 177 7 59 9 153 3 153 -3 0 -5 12
-4 28 1 35 -20 126 -42 177 -10 22 -18 45 -20 50 -1 6 -21 39 -45 75 -123 186
-318 309 -528 335 -23 3 -46 7 -51 10 -4 2 -10 2 -13 -2z"/>
<path d="M4120 6715 l-105 -43 0 -659 0 -658 105 -1 c58 0 110 1 115 3 15 5
15 1403 0 1403 -5 -1 -57 -20 -115 -45z"/>
<path d="M3413 4353 c-12 -2 -27 -11 -33 -19 -7 -8 -23 -14 -36 -14 -13 0 -24
-5 -24 -12 0 -6 -2 -9 -6 -6 -3 3 -27 -3 -53 -13 -27 -10 -51 -15 -55 -12 -3
3 -8 -1 -12 -10 -4 -11 22 -51 77 -119 45 -57 90 -110 98 -119 9 -9 30 -34 48
-55 131 -160 401 -439 602 -624 124 -114 111 -103 190 -170 36 -30 72 -62 81
-70 20 -18 68 -57 180 -144 47 -37 96 -76 110 -87 14 -11 37 -28 53 -37 15 -9
27 -20 27 -24 0 -4 6 -8 14 -8 8 0 16 -4 18 -8 3 -8 295 -212 303 -212 2 0 30
-18 63 -39 32 -22 74 -48 93 -59 19 -11 72 -42 119 -69 221 -128 626 -332 690
-348 3 -1 22 -9 43 -18 20 -9 41 -17 45 -18 4 -1 36 -14 72 -29 36 -15 112
-44 170 -65 58 -20 112 -39 120 -43 8 -3 20 -6 25 -7 6 0 19 -6 30 -12 11 -6
23 -11 28 -11 16 -1 72 -15 82 -20 6 -4 15 -7 20 -9 6 -1 44 -11 85 -23 41
-11 83 -23 94 -25 10 -2 55 -13 100 -24 44 -11 92 -22 106 -25 14 -2 36 -7 50
-10 14 -3 36 -8 50 -10 14 -3 36 -7 50 -10 13 -3 42 -8 65 -11 22 -3 54 -8 70
-12 17 -3 41 -7 55 -9 110 -10 157 -15 167 -19 32 -11 233 -20 448 -20 240 0
365 7 527 30 55 8 206 33 238 40 14 4 36 8 50 11 187 36 616 188 730 259 19
12 43 25 54 28 65 25 348 207 417 270 10 9 23 17 28 17 5 0 11 3 13 8 2 4 30
30 63 57 33 28 98 87 145 133 47 45 89 82 94 82 5 0 7 3 3 6 -3 3 4 16 16 29
44 45 93 102 142 165 27 36 53 67 57 68 5 2 8 10 8 18 0 8 7 17 15 20 8 4 15
12 15 20 0 8 5 14 10 14 6 0 10 4 10 9 0 7 71 122 97 157 35 46 192 367 218
444 1 3 7 19 14 35 7 17 14 35 15 40 1 6 5 16 9 22 5 7 10 21 12 30 3 10 19
63 36 118 17 55 32 107 34 115 2 8 4 16 5 18 2 1 3 5 4 10 8 31 17 71 21 90
11 50 14 64 19 80 5 16 13 57 21 112 2 14 6 36 9 50 15 80 16 103 4 93 -13
-10 -150 -60 -185 -68 -10 -2 -34 -9 -53 -15 -87 -26 -238 -53 -312 -54 -27
-1 -48 -4 -48 -8 0 -8 -402 -3 -440 5 -14 3 -43 8 -65 11 -22 3 -51 8 -65 11
-14 3 -39 8 -55 10 l-31 6 -18 -78 c-10 -43 -33 -130 -52 -193 -19 -63 -36
-123 -39 -133 -2 -9 -7 -23 -12 -30 -4 -6 -8 -14 -8 -17 -2 -19 -41 -110 -47
-110 -4 0 -7 -3 -6 -7 1 -5 -6 -26 -16 -48 -10 -22 -19 -45 -20 -51 -1 -7 -8
-19 -15 -28 -7 -9 -10 -16 -5 -16 5 0 5 -4 -1 -8 -5 -4 -22 -29 -36 -57 -45
-87 -106 -191 -136 -230 -5 -5 -17 -23 -27 -40 -11 -16 -23 -34 -28 -40 -4 -5
-27 -35 -50 -65 -91 -117 -254 -284 -363 -370 -39 -30 -71 -58 -73 -62 -2 -5
-8 -8 -13 -8 -5 0 -32 -18 -61 -39 -28 -22 -55 -38 -59 -35 -4 2 -9 -2 -12
-10 -3 -7 -23 -22 -44 -33 -21 -11 -73 -38 -115 -61 -42 -23 -84 -42 -92 -42
-9 0 -16 -4 -16 -9 0 -8 -20 -18 -50 -26 -3 -1 -18 -8 -35 -15 -16 -7 -32 -14
-35 -15 -3 -1 -12 -5 -20 -8 -24 -10 -163 -58 -180 -62 -8 -2 -51 -13 -95 -25
-44 -11 -89 -22 -100 -24 -11 -2 -31 -7 -45 -10 -14 -3 -41 -8 -60 -11 -34 -6
-54 -9 -137 -20 -165 -23 -514 -23 -723 -1 -113 12 -204 26 -266 40 -12 2 -38
7 -59 10 -29 5 -166 38 -297 72 -10 2 -26 6 -35 8 -10 2 -38 11 -63 20 -25 9
-53 16 -62 16 -10 0 -18 5 -18 11 0 5 -3 8 -7 6 -5 -3 -19 0 -33 6 -14 5 -33
11 -42 13 -49 10 -361 140 -518 216 -138 67 -405 212 -444 241 -6 4 -51 33
-101 64 -49 32 -93 62 -97 68 -4 5 -8 6 -8 1 0 -5 -10 -1 -22 10 -13 11 -52
40 -88 64 -36 25 -72 50 -80 57 -8 6 -58 44 -110 83 -52 39 -107 82 -122 96
-15 13 -30 24 -32 24 -3 0 -16 10 -29 23 -12 12 -35 31 -49 42 -190 148 -565
523 -799 800 -46 55 -87 102 -91 103 -5 2 -8 8 -8 14 0 29 -50 50 -97 41z"/>
</g>
</svg>
